<?xml version="1.0" encoding="UTF-8" standalone="no"?>
<svg
   xmlns:dc="http://purl.org/dc/elements/1.1/"
   xmlns:cc="http://creativecommons.org/ns#"
   xmlns:rdf="http://www.w3.org/1999/02/22-rdf-syntax-ns#"
   xmlns:svg="http://www.w3.org/2000/svg"
   xmlns="http://www.w3.org/2000/svg"
   xmlns:sodipodi="http://sodipodi.sourceforge.net/DTD/sodipodi-0.dtd"
   xmlns:inkscape="http://www.inkscape.org/namespaces/inkscape"
   stroke-miterlimit="4.00"
   viewBox="0 0 432.4337 384.39996"
   id="svg3721"
   version="1.1"
   inkscape:version="0.91 r13725"
   sodipodi:docname="topology-conference.svg"
   width="432.43369"
   height="384.39996"
   style="clip-rule:evenodd;stroke-miterlimit:4">
  <metadata
     id="metadata4066">
    <rdf:RDF>
      <cc:Work
         rdf:about="">
        <dc:format>image/svg+xml</dc:format>
        <dc:type
           rdf:resource="http://purl.org/dc/dcmitype/StillImage" />
        <dc:title></dc:title>
      </cc:Work>
    </rdf:RDF>
  </metadata>
  <sodipodi:namedview
     pagecolor="#ffffff"
     bordercolor="#666666"
     borderopacity="1"
     objecttolerance="10"
     gridtolerance="10"
     guidetolerance="10"
     inkscape:pageopacity="0"
     inkscape:pageshadow="2"
     inkscape:window-width="1920"
     inkscape:window-height="1163"
     id="namedview4064"
     showgrid="false"
     fit-margin-top="0"
     fit-margin-left="0"
     fit-margin-right="0"
     fit-margin-bottom="0"
     inkscape:zoom="1.7935469"
     inkscape:cx="274.25446"
     inkscape:cy="168.17668"
     inkscape:window-x="0"
     inkscape:window-y="0"
     inkscape:window-maximized="1"
     inkscape:current-layer="g3727"
     showguides="false" />
  <desc
     id="desc3723">SVG generated by Keynote</desc>
  <defs
     id="defs3725" />
  <g
     transform="matrix(1,0,0,-1,-289.4834,637.89998)"
     id="g3727">
    <path
       d="M 0,28 0,15 C 0,6.7 6.7,0 15,0 l 99,0 c 8.3,0 15,6.7 15,15 l 0,13 c 0,8.3 -6.7,15 -15,15 L 15,43 C 6.7,43 0,36.3 0,28 Z m 0,0"
       transform="matrix(1,0,0,-1,319,473.5)"
       id="path3731"
       inkscape:connector-curvature="0"
       style="fill:none;stroke:#000000;stroke-width:2" />
    <path
       d="M 0,28 0,15 C 0,6.7 6.7,0 15,0 l 99,0 c 8.3,0 15,6.7 15,15 l 0,13 c 0,8.3 -6.7,15 -15,15 L 15,43 C 6.7,43 0,36.3 0,28 Z m 0,0"
       transform="matrix(1,0,0,-1,558.5,473.5)"
       id="path3756"
       inkscape:connector-curvature="0"
       style="fill:none;stroke:#000000;stroke-width:2" />
    <path
       d="M 0,28 0,15 C 0,6.7 6.7,0 15,0 l 99,0 c 8.3,0 15,6.7 15,15 l 0,13 c 0,8.3 -6.7,15 -15,15 L 15,43 C 6.7,43 0,36.3 0,28 Z m 0,0"
       transform="matrix(1,0,0,-1,438.7,636.9)"
       id="path3781"
       inkscape:connector-curvature="0"
       style="fill:none;stroke:#000000;stroke-width:2" />
    <path
       d="M 0,28 0,15 C 0,6.7 6.7,0 15,0 l 99,0 c 8.3,0 15,6.7 15,15 l 0,13 c 0,8.3 -6.7,15 -15,15 L 15,43 C 6.7,43 0,36.3 0,28 Z m 0,0"
       id="path3806"
       inkscape:connector-curvature="0"
       style="fill:none;stroke:#000000;stroke-width:2"
       transform="matrix(1,0,0,-1,438.7,542.8)" />
    <path
       d="M 4.5,34.8 5.3,33.5 C 15.9,18 28.6,6.8 43.5,0"
       transform="matrix(1,0,0,-1,394.3,516.4)"
       id="path3827"
       inkscape:connector-curvature="0"
       style="fill:none;stroke:#c82505;stroke-width:3;stroke-linecap:round;stroke-linejoin:round;stroke-dasharray:0, 9" />
    <path
       d="m 395.7,489.1 -1.4,-14.6 12.6,7.6 -7.4,0.7 z m 0,0"
       id="path3829"
       inkscape:connector-curvature="0"
       style="fill:#c82505" />
    <path
       d="M 43.8,32.6 C 28.6,26.2 16.2,17.9 6.4,7.6 l -1,-1.2"
       transform="matrix(1,0,0,-1,515.7,498.8)"
       id="path3831"
       inkscape:connector-curvature="0"
       style="fill:none;stroke:#0264c0;stroke-width:3;stroke-miterlimit:4;stroke-dasharray:none" />
    <path
       d="m 529.3,493 -13.6,5.8 3.5,-14.3 2.9,6.8 z m 0,0"
       id="path3833"
       inkscape:connector-curvature="0"
       style="fill:#0264c0" />
    <path
       d="M 39.8,38.7 39,37.4 C 28,19.5 15,7 0,0"
       transform="matrix(1,0,0,-1,568.7,520.4)"
       id="path3835"
       inkscape:connector-curvature="0"
       style="fill:none;stroke:#c82505;stroke-width:3;stroke-linecap:round;stroke-linejoin:round;stroke-dasharray:0, 9" />
    <path
       d="m 600.4,482.6 12.3,-8.1 -0.9,14.7 -4,-6.2 z m 0,0"
       id="path3837"
       inkscape:connector-curvature="0"
       style="fill:#c82505" />
    <path
       d="m 37.2,6.2 -1,1.1 C 26.3,17 14.3,25.1 0,31.4"
       transform="matrix(1,0,0,-1,446.2,498.8)"
       id="path3839"
       inkscape:connector-curvature="0"
       style="fill:none;stroke:#0264c0;stroke-width:3;stroke-miterlimit:4;stroke-dasharray:none;stroke-dashoffset:0" />
    <path
       d="m 485,484.6 4.1,14.2 -13.8,-5.2 7.1,-2.1 z m 0,0"
       id="path3841"
       inkscape:connector-curvature="0"
       style="fill:#0264c0" />
    <path
       d="M 3.9,41.6 4.6,40.3 C 10.3,26.7 9,13.2 0.7,0"
       transform="matrix(1,0,0,-1,523.5,592.9)"
       id="path3843"
       inkscape:connector-curvature="0"
       style="fill:none;stroke:#0264c0;stroke-width:3;stroke-miterlimit:4;stroke-dasharray:none" />
    <path
       d="m 523.8,558.6 -0.3,-14.8 12,8.7 -7.4,0.1 z m 0,0"
       id="path3845"
       inkscape:connector-curvature="0"
       style="fill:#0264c0" />
    <path
       d="M 7,49 C -0.7,35.7 -2.1,22.4 3,8.9 L 3.6,7.6"
       transform="matrix(1,0,0,-1,477,592.9)"
       id="path3847"
       inkscape:connector-curvature="0"
       style="fill:none;stroke:#c82505;stroke-width:3;stroke-linecap:round;stroke-linejoin:round;stroke-dasharray:0, 9" />
    <path
       d="m 484.5,578.1 -0.3,14.8 -11.6,-9.1 7.3,0.2 z m 0,0"
       id="path3849"
       inkscape:connector-curvature="0"
       style="fill:#c82505" />
    <path
       d="M 0,28 0,15 C 0,6.7 6.7,0 15,0 l 99,0 c 8.3,0 15,6.7 15,15 l 0,13 c 0,8.3 -6.7,15 -15,15 L 15,43 C 6.7,43 0,36.3 0,28 Z m 0,0"
       transform="matrix(1,0,0,-1,319,297.5)"
       id="path3851"
       inkscape:connector-curvature="0"
       style="fill:none;stroke:#000000;stroke-width:2" />
    <path
       d="M 0,28 0,15 C 0,6.7 6.7,0 15,0 l 99,0 c 8.3,0 15,6.7 15,15 l 0,13 c 0,8.3 -6.7,15 -15,15 L 15,43 C 6.7,43 0,36.3 0,28 Z m 0,0"
       transform="matrix(1,0,0,-1,558.5,297.5)"
       id="path3876"
       inkscape:connector-curvature="0"
       style="fill:none;stroke:#000000;stroke-width:2" />
    <path
       d="M 0,28 0,15 C 0,6.7 6.7,0 15,0 l 99,0 c 8.3,0 15,6.7 15,15 l 0,13 c 0,8.3 -6.7,15 -15,15 L 15,43 C 6.7,43 0,36.3 0,28 Z m 0,0"
       id="path3901"
       inkscape:connector-curvature="0"
       style="fill:none;stroke:#000000;stroke-width:2"
       transform="matrix(1,0,0,-1,438.7,400.9)" />
    <path
       d="M 0.1,61.5 0,60 C 0.8,31.9 21.2,11.9 61.2,0"
       transform="matrix(1,0,0,-1,377.2,368.5)"
       id="path3926"
       inkscape:connector-curvature="0"
       style="fill:none;stroke:#0264c0;stroke-width:3;stroke-miterlimit:4;stroke-dasharray:none" />
    <path
       d="m 370.5,311.4 7.2,-12.9 5.9,13.5 -6.4,-3.6 z m 0,0"
       id="path3928"
       inkscape:connector-curvature="0"
       style="fill:#0264c0" />
    <path
       d="M 56.6,60.4 C 48,37.7 32,19.3 8.6,4.9 L 7.3,4.2"
       transform="matrix(1,0,0,-1,560.4,358.9)"
       id="path3930"
       inkscape:connector-curvature="0"
       style="fill:none;stroke:#0264c0;stroke-width:3;stroke-miterlimit:4;stroke-dasharray:none" />
    <path
       d="m 575.2,358.1 -14.8,0.8 8.2,-12.3 0.4,7.4 z m 0,0"
       id="path3932"
       inkscape:connector-curvature="0"
       style="fill:#0264c0" />
    <path
       d="M 109.2,2.9 C 75.1,-0.4 42,-0.9 9.9,1.5 L 8.4,1.6"
       transform="matrix(1,0,0,-1,448.5,288.6)"
       id="path3934"
       inkscape:connector-curvature="0"
       style="fill:none;stroke:#0264c0;stroke-width:3;stroke-miterlimit:4;stroke-dasharray:none" />
    <path
       d="m 461.2,294 -12.7,-7.7 13.7,-5.5 -3.8,6.3 z m 0,0"
       id="path3936"
       inkscape:connector-curvature="0"
       style="fill:#0264c0" />
    <path
       d="M 100.3,1.3 98.8,1.4 C 67.2,3.3 34.2,2.8 0,0"
       transform="matrix(1,0,0,-1,448.9,268.1)"
       id="path3938"
       inkscape:connector-curvature="0"
       style="fill:none;stroke:#0264c0;stroke-width:3;stroke-miterlimit:4;stroke-dasharray:none" />
    <path
       d="m 544.9,259.9 12.7,7.5 -13.6,5.7 3.8,-6.4 z m 0,0"
       id="path3940"
       inkscape:connector-curvature="0"
       style="fill:#0264c0" />
    <path
       d="m 62.5,59.9 0,-1.5 C 61.5,32.1 40.6,12.6 0,0"
       transform="matrix(1,0,0,-1,567.5,366.8)"
       id="path3942"
       inkscape:connector-curvature="0"
       style="fill:none;stroke:#0264c0;stroke-width:3;stroke-miterlimit:4;stroke-dasharray:none" />
    <path
       d="m 623.7,312 5.9,-13.5 7.2,12.9 -6.7,-3 z m 0,0"
       id="path3944"
       inkscape:connector-curvature="0"
       style="fill:#0264c0" />
    <path
       d="M 0,59.8 C 8.5,37.9 25,19.5 49.3,4.9 l 1.3,-0.8"
       transform="matrix(1,0,0,-1,389.3,358.3)"
       id="path3946"
       inkscape:connector-curvature="0"
       style="fill:none;stroke:#0264c0;stroke-width:3;stroke-miterlimit:4;stroke-dasharray:none" />
    <path
       d="m 439,346.1 8.2,12.2 -14.7,-0.7 6.1,-4.1 z m 0,0"
       id="path3948"
       inkscape:connector-curvature="0"
       style="fill:#0264c0" />
    <path
       d="M 0,0 415.8,0"
       transform="matrix(1,0,0,-1,297.7,415.7)"
       id="path3950"
       inkscape:connector-curvature="0"
       style="fill:none;stroke:#000000;stroke-width:3;stroke-linecap:round;stroke-dasharray:0, 9" />
    <path
       d="m 0,0 35.8,0 1.5,0"
       transform="matrix(1,0,0,-1,587.1,588.9)"
       id="path4000"
       inkscape:connector-curvature="0"
       style="fill:none;stroke:#0264c0;stroke-width:3;stroke-miterlimit:4;stroke-dasharray:none" />
    <path
       d="m 622.9,582.3 13.2,6.6 -13.2,6.6 z m 0,0"
       id="path4002"
       inkscape:connector-curvature="0"
       style="fill:#0264c0" />
    <path
       d="m 0,0 35.8,0 1.5,0"
       transform="matrix(1,0,0,-1,587.1,563.1)"
       id="path4004"
       inkscape:connector-curvature="0"
       style="fill:none;stroke:#c82505;stroke-width:3;stroke-linecap:round;stroke-linejoin:round;stroke-dasharray:0, 9" />
    <path
       d="m 622.9,556.5 13.2,6.6 -13.2,6.6 z m 0,0"
       id="path4006"
       inkscape:connector-curvature="0"
       style="fill:#c82505" />
    <text
       xml:space="preserve"
       font-style="italic"
       font-size="14.0"
       transform="matrix(1,0,0,-1,641.4,613)"
       id="text4018"
       style="font-style:italic;font-size:14px;font-family:AvenirNext-Italic;fill:#000000" />
    <flowRoot
       xml:space="preserve"
       id="flowRoot4068"
       style="font-style:normal;font-weight:normal;font-size:40px;line-height:125%;font-family:Sans;letter-spacing:0px;word-spacing:0px;fill:#000000;fill-opacity:1;stroke:none;stroke-width:1px;stroke-linecap:butt;stroke-linejoin:miter;stroke-opacity:1"
       transform="matrix(1.0000001,0,0,-1.0000001,289.4834,637.90002)"><flowRegion
         id="flowRegion4070"><rect
           id="rect4072"
           width="71.359344"
           height="62.29158"
           x="350.09445"
           y="34.305538" /></flowRegion><flowPara
         id="flowPara4074"></flowPara></flowRoot>    <text
       xml:space="preserve"
       style="font-style:italic;font-variant:normal;font-weight:normal;font-stretch:normal;font-size:20.00000191px;line-height:125%;font-family:Sans;-inkscape-font-specification:'Sans, Italic';text-align:start;letter-spacing:0px;word-spacing:0px;writing-mode:lr-tb;text-anchor:start;fill:#000000;fill-opacity:1;stroke:none;stroke-width:1px;stroke-linecap:butt;stroke-linejoin:miter;stroke-opacity:1"
       x="288.64355"
       y="-620.15302"
       id="text4080"
       sodipodi:linespacing="125%"
       transform="scale(1,-1)"><tspan
         sodipodi:role="line"
         id="tspan4082"
         x="288.64355"
         y="-620.15302">Centralized</tspan></text>
    <text
       xml:space="preserve"
       style="font-style:italic;font-variant:normal;font-weight:normal;font-stretch:normal;font-size:20.00000191px;line-height:125%;font-family:Sans;-inkscape-font-specification:'Sans, Italic';text-align:start;letter-spacing:0px;word-spacing:0px;writing-mode:lr-tb;text-anchor:start;clip-rule:evenodd;fill:#000000;fill-opacity:1;stroke:none;stroke-width:1px;stroke-linecap:butt;stroke-linejoin:miter;stroke-miterlimit:4;stroke-opacity:1"
       x="288.94629"
       y="-385.75555"
       id="text4080-6"
       sodipodi:linespacing="125%"
       transform="scale(1,-1)"><tspan
         sodipodi:role="line"
         id="tspan4082-6"
         x="288.94629"
         y="-385.75555">Decentralized</tspan></text>
    <text
       xml:space="preserve"
       style="font-style:italic;font-variant:normal;font-weight:normal;font-stretch:normal;font-size:17.50000191px;line-height:125%;font-family:Sans;-inkscape-font-specification:'Sans, Italic';text-align:start;letter-spacing:0px;word-spacing:0px;writing-mode:lr-tb;text-anchor:start;clip-rule:evenodd;fill:#000000;fill-opacity:1;stroke:none;stroke-width:1px;stroke-linecap:butt;stroke-linejoin:miter;stroke-miterlimit:4;stroke-opacity:1"
       x="594.45728"
       y="-606.78168"
       id="text4080-69"
       sodipodi:linespacing="125%"
       transform="scale(1,-1)"><tspan
         sodipodi:role="line"
         id="tspan4082-8"
         x="594.45728"
         y="-606.78168">Audio Signals</tspan></text>
    <text
       xml:space="preserve"
       style="font-style:normal;font-variant:normal;font-weight:normal;font-stretch:normal;font-size:17.50000191px;line-height:125%;font-family:Sans;-inkscape-font-specification:'Sans, Normal';text-align:start;letter-spacing:0px;word-spacing:0px;writing-mode:lr-tb;text-anchor:start;clip-rule:evenodd;fill:#000000;fill-opacity:1;stroke:none;stroke-width:1px;stroke-linecap:butt;stroke-linejoin:miter;stroke-miterlimit:4;stroke-opacity:1"
       x="638.61267"
       y="-582.64722"
       id="text4080-69-2"
       sodipodi:linespacing="125%"
       transform="scale(1,-1)"><tspan
         sodipodi:role="line"
         id="tspan4082-8-2"
         x="638.61267"
         y="-582.64722">individual</tspan></text>
    <text
       xml:space="preserve"
       style="font-style:normal;font-variant:normal;font-weight:normal;font-stretch:normal;font-size:17.50000191px;line-height:125%;font-family:Sans;-inkscape-font-specification:'Sans, Normal';text-align:start;letter-spacing:0px;word-spacing:0px;writing-mode:lr-tb;text-anchor:start;clip-rule:evenodd;fill:#000000;fill-opacity:1;stroke:none;stroke-width:1px;stroke-linecap:butt;stroke-linejoin:miter;stroke-miterlimit:4;stroke-opacity:1"
       x="638.61267"
       y="-558.0177"
       id="text4080-69-0"
       sodipodi:linespacing="125%"
       transform="scale(1,-1)"><tspan
         sodipodi:role="line"
         id="tspan4082-8-4"
         x="638.61267"
         y="-558.0177">rendered</tspan></text>
    <text
       xml:space="preserve"
       style="font-style:italic;font-variant:normal;font-weight:normal;font-stretch:normal;font-size:18.75px;line-height:125%;font-family:Sans;-inkscape-font-specification:'Sans, Italic';text-align:center;letter-spacing:0px;word-spacing:0px;writing-mode:lr-tb;text-anchor:middle;clip-rule:evenodd;fill:#000000;fill-opacity:1;stroke:none;stroke-width:1px;stroke-linecap:butt;stroke-linejoin:miter;stroke-miterlimit:4;stroke-opacity:1"
       x="503.01831"
       y="-609.01184"
       id="text4080-7"
       sodipodi:linespacing="125%"
       transform="scale(1,-1)"><tspan
         sodipodi:role="line"
         id="tspan4082-4"
         x="503.01831"
         y="-609.01184"
         style="-inkscape-font-specification:'Sans, Normal';font-family:Sans;font-weight:normal;font-style:normal;font-stretch:normal;font-variant:normal;font-size:18.75px;text-anchor:middle;text-align:center;writing-mode:lr;line-height:125%">Client A</tspan></text>
    <text
       xml:space="preserve"
       style="font-style:normal;font-variant:normal;font-weight:normal;font-stretch:normal;font-size:18.75px;line-height:125%;font-family:Sans;-inkscape-font-specification:'Sans, Normal';text-align:center;letter-spacing:0px;word-spacing:0px;writing-mode:lr-tb;text-anchor:middle;clip-rule:evenodd;fill:#000000;fill-opacity:1;stroke:none;stroke-width:1px;stroke-linecap:butt;stroke-linejoin:miter;stroke-miterlimit:4;stroke-opacity:1"
       x="504.05667"
       y="-514.69366"
       id="text4080-7-6"
       sodipodi:linespacing="125%"
       transform="scale(1,-1)"><tspan
         sodipodi:role="line"
         id="tspan4082-4-3"
         x="504.05667"
         y="-514.69366">Renderer</tspan></text>
    <text
       xml:space="preserve"
       style="font-style:normal;font-variant:normal;font-weight:normal;font-stretch:normal;font-size:18.75px;line-height:125%;font-family:Sans;-inkscape-font-specification:'Sans, Normal';text-align:center;letter-spacing:0px;word-spacing:0px;writing-mode:lr-tb;text-anchor:middle;clip-rule:evenodd;fill:#000000;fill-opacity:1;stroke:none;stroke-width:1px;stroke-linecap:butt;stroke-linejoin:miter;stroke-miterlimit:4;stroke-opacity:1"
       x="505.72937"
       y="-373.07483"
       id="text4080-7-7"
       sodipodi:linespacing="125%"
       transform="scale(1,-1)"><tspan
         sodipodi:role="line"
         id="tspan4082-4-33"
         x="505.72937"
         y="-373.07483">Client A</tspan></text>
    <text
       xml:space="preserve"
       style="font-style:normal;font-variant:normal;font-weight:normal;font-stretch:normal;font-size:18.75px;line-height:125%;font-family:Sans;-inkscape-font-specification:'Sans, Normal';text-align:center;letter-spacing:0px;word-spacing:0px;writing-mode:lr-tb;text-anchor:middle;clip-rule:evenodd;fill:#000000;fill-opacity:1;stroke:none;stroke-width:1px;stroke-linecap:butt;stroke-linejoin:miter;stroke-miterlimit:4;stroke-opacity:1"
       x="384.74008"
       y="-443.88422"
       id="text4080-7-8"
       sodipodi:linespacing="125%"
       transform="scale(1,-1)"><tspan
         sodipodi:role="line"
         id="tspan4082-4-9"
         x="384.74008"
         y="-443.88422">Client B</tspan></text>
    <text
       xml:space="preserve"
       style="font-style:normal;font-variant:normal;font-weight:normal;font-stretch:normal;font-size:18.75px;line-height:125%;font-family:Sans;-inkscape-font-specification:'Sans, Normal';text-align:center;letter-spacing:0px;word-spacing:0px;writing-mode:lr-tb;text-anchor:middle;clip-rule:evenodd;fill:#000000;fill-opacity:1;stroke:none;stroke-width:1px;stroke-linecap:butt;stroke-linejoin:miter;stroke-miterlimit:4;stroke-opacity:1"
       x="625.60358"
       y="-444.99936"
       id="text4080-7-8-5"
       sodipodi:linespacing="125%"
       transform="scale(1,-1)"><tspan
         sodipodi:role="line"
         id="tspan4082-4-9-5"
         x="625.60358"
         y="-444.99936">Client C</tspan></text>
    <text
       xml:space="preserve"
       style="font-style:normal;font-variant:normal;font-weight:normal;font-stretch:normal;font-size:18.75px;line-height:125%;font-family:Sans;-inkscape-font-specification:'Sans, Normal';text-align:center;letter-spacing:0px;word-spacing:0px;writing-mode:lr-tb;text-anchor:middle;clip-rule:evenodd;fill:#000000;fill-opacity:1;stroke:none;stroke-width:1px;stroke-linecap:butt;stroke-linejoin:miter;stroke-miterlimit:4;stroke-opacity:1"
       x="626.16113"
       y="-268.81213"
       id="text4080-7-8-5-3"
       sodipodi:linespacing="125%"
       transform="scale(1,-1)"><tspan
         sodipodi:role="line"
         id="tspan4082-4-9-5-8"
         x="626.16113"
         y="-268.81213">Client C</tspan></text>
    <text
       xml:space="preserve"
       style="font-style:normal;font-variant:normal;font-weight:normal;font-stretch:normal;font-size:18.75px;line-height:125%;font-family:Sans;-inkscape-font-specification:'Sans, Normal';text-align:center;letter-spacing:0px;word-spacing:0px;writing-mode:lr-tb;text-anchor:middle;clip-rule:evenodd;fill:#000000;fill-opacity:1;stroke:none;stroke-width:1px;stroke-linecap:butt;stroke-linejoin:miter;stroke-miterlimit:4;stroke-opacity:1"
       x="384.74008"
       y="-267.13947"
       id="text4080-7-8-5-3-6"
       sodipodi:linespacing="125%"
       transform="scale(1,-1)"><tspan
         sodipodi:role="line"
         id="tspan4082-4-9-5-8-0"
         x="384.74008"
         y="-267.13947">Client B</tspan></text>
  </g>
</svg>
